<?xml version="1.0" encoding="UTF-8" standalone="no"?>
<!-- Created with Inkscape (http://www.inkscape.org/) -->

<svg
   width="1024mm"
   height="1024mm"
   viewBox="0 0 1024 1024"
   version="1.1"
   id="svg2880"
   sodipodi:docname="logoKITMeApp-no-bkg.svg"
   inkscape:version="1.2.2 (b0a8486, 2022-12-01)"
   xml:space="preserve"
   inkscape:export-filename="logoKITMeApp.pdf"
   inkscape:export-xdpi="25.4"
   inkscape:export-ydpi="25.4"
   xmlns:inkscape="http://www.inkscape.org/namespaces/inkscape"
   xmlns:sodipodi="http://sodipodi.sourceforge.net/DTD/sodipodi-0.dtd"
   xmlns:xlink="http://www.w3.org/1999/xlink"
   xmlns="http://www.w3.org/2000/svg"
   xmlns:svg="http://www.w3.org/2000/svg"><sodipodi:namedview
     id="namedview2882"
     pagecolor="#ffffff"
     bordercolor="#666666"
     borderopacity="1.0"
     inkscape:showpageshadow="2"
     inkscape:pageopacity="0.0"
     inkscape:pagecheckerboard="0"
     inkscape:deskcolor="#d1d1d1"
     inkscape:document-units="mm"
     showgrid="false"
     inkscape:zoom="0.14321099"
     inkscape:cx="1574.5998"
     inkscape:cy="1906.2782"
     inkscape:window-width="1680"
     inkscape:window-height="942"
     inkscape:window-x="0"
     inkscape:window-y="25"
     inkscape:window-maximized="0"
     inkscape:current-layer="g10512"><inkscape:grid
       type="xygrid"
       id="grid30232" /></sodipodi:namedview><defs
     id="defs2877"><linearGradient
       inkscape:collect="always"
       id="linearGradient32410"><stop
         style="stop-color:#f8b933;stop-opacity:0.1;"
         offset="0"
         id="stop32408" /><stop
         style="stop-color:#f8b933;stop-opacity:0.80000001;"
         offset="1"
         id="stop32406" /></linearGradient><linearGradient
       inkscape:collect="always"
       id="linearGradient19481"><stop
         style="stop-color:#bc2c1a;stop-opacity:1;"
         offset="0"
         id="stop19477" /><stop
         style="stop-color:#bc2c1a;stop-opacity:0;"
         offset="1"
         id="stop19479" /></linearGradient><linearGradient
       id="linearGradient19406"
       inkscape:swatch="solid"><stop
         style="stop-color:#000000;stop-opacity:1;"
         offset="0"
         id="stop19404" /></linearGradient><linearGradient
       inkscape:collect="always"
       id="linearGradient10713"><stop
         style="stop-color:#f5aa24;stop-opacity:1;"
         offset="0"
         id="stop10709" /><stop
         style="stop-color:#fcce48;stop-opacity:1;"
         offset="1"
         id="stop10711" /></linearGradient><inkscape:path-effect
       effect="bspline"
       id="path-effect10516"
       is_visible="true"
       lpeversion="1"
       weight="33.333333"
       steps="2"
       helper_size="0"
       apply_no_weight="true"
       apply_with_weight="true"
       only_selected="false" /><inkscape:path-effect
       effect="bspline"
       id="path-effect10505"
       is_visible="true"
       lpeversion="1"
       weight="33.333333"
       steps="2"
       helper_size="0"
       apply_no_weight="true"
       apply_with_weight="true"
       only_selected="false" /><inkscape:path-effect
       effect="bspline"
       id="path-effect8307"
       is_visible="true"
       lpeversion="1"
       weight="33.333333"
       steps="2"
       helper_size="0"
       apply_no_weight="true"
       apply_with_weight="true"
       only_selected="false" /><linearGradient
       inkscape:collect="always"
       xlink:href="#linearGradient10713"
       id="linearGradient10715"
       x1="907.90851"
       y1="827.9895"
       x2="56.569466"
       y2="68.089928"
       gradientUnits="userSpaceOnUse" /><linearGradient
       inkscape:collect="always"
       xlink:href="#linearGradient19481"
       id="linearGradient19483"
       x1="124.66598"
       y1="51.74939"
       x2="925.09344"
       y2="786.0437"
       gradientUnits="userSpaceOnUse" /><linearGradient
       inkscape:collect="always"
       xlink:href="#linearGradient10713"
       id="linearGradient26458"
       gradientUnits="userSpaceOnUse"
       x1="907.90851"
       y1="827.9895"
       x2="56.569466"
       y2="68.089928" /><filter
       inkscape:collect="always"
       style="color-interpolation-filters:sRGB"
       id="filter28160"
       x="-0.21495857"
       y="-1.2897851"
       width="1.4299171"
       height="3.5795706"><feGaussianBlur
         inkscape:collect="always"
         stdDeviation="27.82615"
         id="feGaussianBlur28162" /></filter><filter
       inkscape:collect="always"
       style="color-interpolation-filters:sRGB"
       id="filter28186"
       x="-0.43332522"
       y="-0.54165658"
       width="1.8666504"
       height="2.0833132"><feGaussianBlur
         inkscape:collect="always"
         stdDeviation="8.5299217"
         id="feGaussianBlur28188" /></filter><filter
       inkscape:collect="always"
       style="color-interpolation-filters:sRGB"
       id="filter28212"
       x="-0.39979607"
       y="-0.65444093"
       width="1.7995958"
       height="2.3089173"><feGaussianBlur
         inkscape:collect="always"
         stdDeviation="10.901804"
         id="feGaussianBlur28214" /></filter><filter
       inkscape:collect="always"
       style="color-interpolation-filters:sRGB"
       id="filter28238"
       x="-0.39979607"
       y="-0.65444093"
       width="1.7995958"
       height="2.3089173"><feGaussianBlur
         inkscape:collect="always"
         stdDeviation="10.901804"
         id="feGaussianBlur28240" /></filter><filter
       inkscape:collect="always"
       style="color-interpolation-filters:sRGB"
       id="filter28264"
       x="-0.30057999"
       y="-0.3046243"
       width="1.60116"
       height="1.6092551"><feGaussianBlur
         inkscape:collect="always"
         stdDeviation="45.251866"
         id="feGaussianBlur28266" /></filter><filter
       inkscape:collect="always"
       style="color-interpolation-filters:sRGB"
       id="filter28291"
       x="-0.44348765"
       y="-0.45692665"
       width="1.8869753"
       height="1.9138533"><feGaussianBlur
         inkscape:collect="always"
         stdDeviation="7.4983563"
         id="feGaussianBlur28293" /></filter><filter
       inkscape:collect="always"
       style="color-interpolation-filters:sRGB"
       id="filter29959"
       x="-0.078862817"
       y="-0.092757967"
       width="1.1577256"
       height="1.1855489"><feGaussianBlur
         inkscape:collect="always"
         stdDeviation="28.594817"
         id="feGaussianBlur29961" /></filter><linearGradient
       inkscape:collect="always"
       xlink:href="#linearGradient19481"
       id="linearGradient19483-7"
       x1="124.66598"
       y1="51.74939"
       x2="925.09344"
       y2="786.0437"
       gradientUnits="userSpaceOnUse" /><linearGradient
       inkscape:collect="always"
       xlink:href="#linearGradient32410"
       id="linearGradient32412"
       x1="-4.8463111"
       y1="-1.2115778"
       x2="1035.899"
       y2="1029.8411"
       gradientUnits="userSpaceOnUse" /></defs><g
     inkscape:groupmode="layer"
     id="layer4"
     inkscape:label="sfondo"
     style="display:none"
     sodipodi:insensitive="true"><rect
       style="display:inline;fill:url(#linearGradient32412);fill-opacity:1;fill-rule:nonzero;stroke:#f8b933;stroke-width:0;stroke-linecap:square;stroke-linejoin:miter;stroke-miterlimit:4;stroke-dasharray:none;stroke-dashoffset:0;stroke-opacity:0.5"
       id="rect30068"
       width="1024"
       height="1024"
       x="5.1648396e-07"
       y="5.1648396e-07"
       ry="0"
       inkscape:label="rect30068" /></g><g
     inkscape:label="Rettangolo"
     inkscape:groupmode="layer"
     id="layer1"
     transform="matrix(1.0830401,0,0,1.0837809,-56.791106,-20.979002)"
     style="display:none"><rect
       style="display:none;fill:none;fill-rule:evenodd;stroke:#000000;stroke-width:0.923011;stroke-linecap:butt;stroke-linejoin:round;stroke-dasharray:none;stroke-opacity:1"
       id="rect2936"
       width="899.47467"
       height="589.31097"
       x="66.463646"
       y="84.187286"
       ry="102.42125"
       class="UnoptimicedTransforms"
       inkscape:label="rect2936" /><path
       style="display:inline;fill:none;stroke:#000000;stroke-width:0.336736px;stroke-linecap:butt;stroke-linejoin:miter;stroke-opacity:1"
       d="m 257.60372,643.05101 c 1.21443,54.71221 -13.11231,133.4312 -20.27567,176.64416 -7.16335,43.21297 -7.16335,50.91956 40.43182,11.46988 47.59516,-39.44968 142.78156,-126.05197 190.37563,-169.8151 47.59407,-43.76313 47.59407,-44.6857 -1.21533,-59.94967 -48.80939,-15.26397 -146.4248,-44.86806 -186.85556,-44.31723 -40.43077,0.55083 -23.67532,31.25575 -22.46089,85.96796 z"
       id="path10503"
       sodipodi:nodetypes="ccccccc"
       inkscape:original-d="m 273.14492,619.04405 c -14.32649,78.71922 -28.65323,157.43821 -42.98022,236.15695 4.8e-4,7.70714 4.8e-4,15.41373 0,23.12024 95.19067,-86.6055 190.37707,-173.20779 285.56487,-259.81204 4.5e-4,-0.92238 4.5e-4,-1.84495 0,-2.76778 -97.61882,-29.60502 -195.23423,-59.2091 -292.85203,-88.81402 16.75639,30.70643 33.51184,61.41135 50.26738,92.11665 z"
       inkscape:path-effect="#path-effect10505" /></g><g
     inkscape:label="Rettangolo unito"
     inkscape:groupmode="layer"
     id="g10512"
     transform="matrix(1.0830401,0,-0.01151687,1.0837809,-51.372215,-20.979002)"
     style="display:inline;fill:url(#linearGradient10715);fill-opacity:1;stroke:none"
     sodipodi:insensitive="true"><path
       id="rect10508-9"
       style="display:inline;mix-blend-mode:normal;fill:#000300;fill-opacity:1;fill-rule:evenodd;stroke:#000000;stroke-width:4.61506;stroke-linecap:butt;stroke-linejoin:bevel;stroke-dasharray:none;stroke-dashoffset:0;stroke-opacity:1;filter:url(#filter29959)"
       class="UnoptimicedTransforms"
       d="m 168.88478,84.187077 c -56.74132,0 -102.420996,45.680243 -102.420996,102.421553 V 571.077 c 0,56.74132 45.679676,102.42108 102.420996,102.42108 h 88.05185 c 16.57614,-1.46178 -11.29414,110.92744 -19.60864,146.1971 -8.03087,34.06652 16.58819,38.95877 40.43209,11.46982 36.59322,-42.18727 106.3539,-154.49792 177.12861,-157.66692 h 408.62854 c 56.74132,0 102.421,-45.67976 102.421,-102.42108 V 186.60863 c 0,-56.74131 -45.67968,-102.421553 -102.421,-102.421553 z"
       transform="matrix(0.75127842,0,6.9105442e-4,0.81626572,158.45942,217.37402)"
       sodipodi:nodetypes="sssscsscsssss"
       inkscape:label="rect10508-9" /><path
       id="rect10508"
       style="display:inline;fill:url(#linearGradient26458);fill-opacity:1;fill-rule:evenodd;stroke:url(#linearGradient19483);stroke-width:4.61506;stroke-linecap:butt;stroke-linejoin:bevel;stroke-dasharray:none;stroke-dashoffset:0;stroke-opacity:1"
       class="UnoptimicedTransforms"
       d="m 168.88478,84.187077 c -56.74132,0 -102.420996,45.680243 -102.420996,102.421553 V 571.077 c 0,56.74132 45.679676,102.42108 102.420996,102.42108 h 88.05185 c 16.57614,-1.46178 -11.29414,110.92744 -19.60864,146.1971 -8.03087,34.06652 16.58819,38.95877 40.43209,11.46982 36.59322,-42.18727 106.3539,-154.49792 177.12861,-157.66692 h 408.62854 c 56.74132,0 102.421,-45.67976 102.421,-102.42108 V 186.60863 c 0,-56.74131 -45.67968,-102.421553 -102.421,-102.421553 z"
       transform="matrix(0.81383975,0,0.00154436,0.95907183,101.14311,108.02822)"
       sodipodi:nodetypes="sssscsscsssss"
       inkscape:label="rect10508"
       sodipodi:insensitive="true" /><path
       id="rect10508-guida"
       style="display:none;fill:none;fill-opacity:1;fill-rule:evenodd;stroke:url(#linearGradient19483-7);stroke-width:4.61506;stroke-linecap:butt;stroke-linejoin:bevel;stroke-dasharray:none;stroke-dashoffset:0;stroke-opacity:1"
       class="UnoptimicedTransforms"
       d="m 168.88478,84.187077 c -56.74132,0 -102.420996,45.680243 -102.420996,102.421553 V 571.077 c 0,56.74132 45.679676,102.42108 102.420996,102.42108 h 88.05185 c 16.57614,-1.46178 68.09516,-49.92874 59.78066,-14.65908 -8.03087,34.06652 36.81014,1.65878 60.65404,-25.83017 36.59322,-42.18727 6.74265,43.65825 77.51736,40.48925 h 408.62854 c 56.74132,0 102.421,-45.67976 102.421,-102.42108 V 186.60863 c 0,-56.74131 -45.67968,-102.421553 -102.421,-102.421553 z"
       transform="matrix(0.81383975,0,0.00154436,0.95907183,1.5330196,128.39969)"
       sodipodi:nodetypes="sssscsscsssss"
       inkscape:label="rect10508-guida"
       sodipodi:insensitive="true" /></g><g
     inkscape:groupmode="layer"
     id="layer2"
     inkscape:label="face"
     transform="matrix(1.1759768,0,0,1.2698806,101.63965,-13.374532)"
     style="display:inline"
     sodipodi:insensitive="true"><path
       style="fill:none;stroke:#36382e;stroke-width:33.3367;stroke-linecap:round;stroke-linejoin:miter;stroke-dasharray:none;stroke-opacity:1"
       d="m 185.23354,469.41525 c 99.91879,81.53156 214.70974,84.4264 373.46593,0"
       id="path23126"
       sodipodi:nodetypes="cc" /><path
       style="mix-blend-mode:normal;fill:none;stroke:#36382e;stroke-width:35;stroke-linecap:round;stroke-linejoin:miter;stroke-dasharray:none;stroke-opacity:1;filter:url(#filter28160)"
       d="m 185.83495,420.53247 c 104.90113,85.60217 225.41601,88.64154 392.0884,0"
       id="path23126-1"
       sodipodi:nodetypes="cc"
       transform="matrix(0.95250439,0,0,0.95244731,9.1322039,88.209941)" /><path
       style="fill:none;stroke:#36382e;stroke-width:23.8119;stroke-linecap:round;stroke-linejoin:miter;stroke-dasharray:none;stroke-opacity:1"
       d="m 137.48448,488.59981 c 35.11648,-8.84519 61.23059,-37.49695 72.47627,-57.97753"
       id="path23126-5"
       sodipodi:nodetypes="cc" /><path
       style="fill:none;stroke:#36382e;stroke-width:25;stroke-linecap:round;stroke-linejoin:miter;stroke-dasharray:none;stroke-opacity:1;filter:url(#filter28186)"
       d="m 143.83085,427.81497 c 36.86752,-9.2868 64.28379,-39.36905 76.09022,-60.87217"
       id="path23126-5-93"
       sodipodi:nodetypes="cc"
       transform="matrix(0.95250439,0,0,0.95244731,9.1322039,88.209941)" /><path
       style="fill:none;stroke:#36382e;stroke-width:23.8119;stroke-linecap:round;stroke-linejoin:miter;stroke-dasharray:none;stroke-opacity:1"
       d="m 605.16955,485.61486 c -35.11648,-8.84518 -61.23059,-37.49695 -72.47627,-57.97753"
       id="path23126-5-8"
       sodipodi:nodetypes="cc" /><path
       style="fill:none;stroke:#36382e;stroke-width:33.3367;stroke-linecap:round;stroke-linejoin:miter;stroke-dasharray:none;stroke-opacity:1"
       d="m 187.76487,356.78234 c -0.69533,-83.02233 103.01103,-85.24315 104.02476,-3.41045"
       id="path23126-5-9"
       sodipodi:nodetypes="cc" /><path
       style="fill:none;stroke:#36382e;stroke-width:35;stroke-linecap:round;stroke-linejoin:miter;stroke-dasharray:none;stroke-opacity:1;filter:url(#filter28212)"
       d="m 197.48555,292.81092 c -0.73,-87.16737 108.14756,-89.49907 109.21184,-3.58072"
       id="path23126-5-9-0"
       sodipodi:nodetypes="cc"
       transform="matrix(0.95250439,0,0,0.95244731,9.1322039,88.209941)" /><path
       style="fill:none;stroke:#36382e;stroke-width:33.3367;stroke-linecap:round;stroke-linejoin:miter;stroke-dasharray:none;stroke-opacity:1"
       d="m 437.17009,352.7438 c -0.69533,-83.02232 103.01103,-85.24315 104.02476,-3.41044"
       id="path23126-5-9-6"
       sodipodi:nodetypes="cc" /><path
       style="fill:none;stroke:#36382e;stroke-width:35;stroke-linecap:round;stroke-linejoin:miter;stroke-dasharray:none;stroke-opacity:1;filter:url(#filter28238)"
       d="m 457.06416,285.58628 c -0.73,-87.16737 108.14756,-89.49907 109.21184,-3.58072"
       id="path23126-5-9-6-0"
       sodipodi:nodetypes="cc"
       transform="matrix(0.95250439,0,0,0.95244731,9.1322039,88.209941)" /><ellipse
       style="fill:#000000;fill-opacity:1;stroke:#000000;stroke-width:18;stroke-linecap:butt;stroke-linejoin:bevel;stroke-dasharray:none;stroke-dashoffset:0;stroke-opacity:1;filter:url(#filter28291)"
       id="path24872-8"
       cx="69.817436"
       cy="153.0546"
       rx="30.436085"
       ry="29.540907"
       transform="matrix(0.95250439,0,0,0.95244731,9.1322039,88.209941)" /><ellipse
       style="fill:#000000;fill-opacity:1;stroke:#ffffff;stroke-width:17.1446;stroke-linecap:butt;stroke-linejoin:bevel;stroke-dasharray:none;stroke-dashoffset:0;stroke-opacity:1"
       id="path24872"
       cx="72.302902"
       cy="230.48012"
       rx="28.990505"
       ry="28.136158" /></g><g
     inkscape:groupmode="layer"
     id="layer3"
     inkscape:label="hand"
     style="display:inline"
     transform="translate(27.866289,15.750511)"><path
       d="m 723.06435,429.272 c -9.01487,7.13674 -14.89701,17.65287 -16.40895,29.33597 -26.56537,-22.53048 -66.24942,-8.00526 -71.91393,26.32209 l -53.46573,-70.24858 c -15.3658,-20.17263 -43.45226,-24.13376 -62.74211,-8.84877 -19.28984,15.28497 -22.48278,44.03144 -7.13264,64.21646 L 634.64675,631.98168 584.5569,610.51732 c -22.89549,-9.81463 -48.76543,1.04664 -57.85302,24.28904 -9.08759,23.2424 2.03118,50.10867 24.86496,60.08108 123.70599,65.28519 186.59707,83.71387 255.68428,28.97021 67.44128,-53.56766 78.59132,-154.13606 24.9247,-224.80962 L 785.81776,438.1356 c -15.37698,-20.15786 -43.44971,-24.123 -62.75341,-8.8636 z m 21.64097,99.00866 c 48.5556,63.94271 -26.98756,-109.24382 -88.00593,-60.77791 -53.8163,42.64323 43.09854,288.62073 -98.83854,213.69152 -0.18,-0.0958 -0.36484,-0.18294 -0.55111,-0.263 -15.31281,-6.54969 -22.84756,-24.48364 -16.82521,-40.04671 6.02234,-15.56308 -14.43814,28.07174 0.86644,34.64272 l 127.17522,60.42088 c 7.08628,3.03693 182.39742,-83.47374 177.65407,-89.70549 L 523.04678,460.82123 C 512.8085,447.36471 685.76542,602.47161 698.62752,592.27989 711.48961,582.08815 559.38743,410.45625 569.62994,423.90942 l 78.8121,103.55115 c 2.56187,3.35891 7.24051,4.01719 10.45401,1.47086 3.21351,-2.54633 3.74688,-7.33452 1.19178,-10.6988 l -4.63601,-6.09126 c -10.23981,-13.45648 -8.11358,-32.62645 4.74922,-42.81873 12.86277,-10.19226 31.59187,-7.54775 41.83396,5.90693 l 13.90801,18.27374 c 2.56113,3.36151 7.24176,4.02133 10.45646,1.47406 3.2147,-2.54728 3.74709,-7.33782 1.18934,-10.70201 -10.24159,-13.45641 13.92692,81.45019 26.79051,71.25727 12.86359,-10.1929 38.49849,-107.3537 29.78038,-92.85714 z"
       id="path25640-1"
       style="display:inline;fill:#000000;fill-opacity:1;stroke:#000000;stroke-width:1.88512;stroke-opacity:1;filter:url(#filter28264)"
       sodipodi:nodetypes="ccccscccscccccccccsccccsccsccsccscssc"
       transform="matrix(0.95250439,0,0,0.95244731,22.63275,101.68748)" /><path
       d="m 680.86278,489.52605 c -8.58671,6.79737 -14.18947,16.81343 -15.6296,27.94097 -25.30363,-21.4591 -63.10286,-7.62459 -68.49833,25.0704 L 545.8085,475.62935 c -14.63599,-19.21337 -41.38847,-22.98613 -59.76213,-8.42799 -18.37366,14.55813 -21.41495,41.93763 -6.79387,61.1628 l 117.39212,154.23218 -47.7108,-20.44367 c -21.80805,-9.34792 -46.44928,0.99687 -55.10525,23.13403 -8.65597,22.13716 1.9347,47.72587 23.68398,57.22406 117.8305,62.18071 177.73453,79.73305 243.5404,27.5926 64.23811,-51.02037 74.85858,-146.80647 23.74089,-214.11932 l -44.15817,-58.01588 c -14.64664,-19.1993 -41.38603,-22.97588 -59.77289,-8.44211 z m 20.61312,94.30053 c 46.24942,60.90206 -25.70577,-104.04898 -83.82604,-57.88775 -51.26026,40.61543 41.05155,274.89603 -94.14414,203.52991 -0.17145,-0.0913 -0.34751,-0.17424 -0.52494,-0.25049 -14.58552,-6.23824 -21.7624,-23.31938 -16.02608,-38.14239 5.7363,-14.82301 -13.7524,26.73686 0.82528,32.99537 l 121.13496,57.5477 c 6.74971,2.89252 173.73434,-79.50433 169.21628,-85.43975 L 490.34516,519.57503 c -9.752,-12.81663 154.99022,134.91452 167.24143,125.20745 12.2512,-9.7071 -132.6268,-173.17744 -122.87076,-160.364 l 75.06887,98.62701 c 2.44019,3.19919 6.89662,3.82616 9.95749,1.40092 3.06088,-2.42525 3.56892,-6.98575 1.13517,-10.19005 l -4.41582,-5.8016 c -9.75346,-12.81659 -7.72822,-31.07497 4.52366,-40.78258 12.25184,-9.70759 30.09139,-7.18884 39.84703,5.62604 l 13.24744,17.40477 c 2.43949,3.20166 6.89781,3.8301 9.95982,1.40396 3.06202,-2.42615 3.56912,-6.98888 1.13285,-10.1931 -9.75516,-12.81652 13.26546,77.57702 25.51808,67.8688 12.25263,-9.7082 36.66998,-102.24874 28.36595,-88.44153 z"
       id="path25640"
       style="display:inline;fill:#ffffff;fill-opacity:1;stroke:none;stroke-width:1.79553;stroke-opacity:1"
       sodipodi:nodetypes="ccccscccscccccccccsccccsccsccsccscssc" /></g></svg>
